%TF.GenerationSoftware,KiCad,Pcbnew,10.0.0*%
%TF.CreationDate,2026-04-17T21:24:35-04:00*%
%TF.ProjectId,GOOBER-PCB,474f4f42-4552-42d5-9043-422e6b696361,0.1*%
%TF.SameCoordinates,Original*%
%TF.FileFunction,Paste,Top*%
%TF.FilePolarity,Positive*%
%FSLAX46Y46*%
G04 Gerber Fmt 4.6, Leading zero omitted, Abs format (unit mm)*
G04 Created by KiCad (PCBNEW 10.0.0) date 2026-04-17 21:24:35*
%MOMM*%
%LPD*%
G01*
G04 APERTURE LIST*
G04 Aperture macros list*
%AMRoundRect*
0 Rectangle with rounded corners*
0 $1 Rounding radius*
0 $2 $3 $4 $5 $6 $7 $8 $9 X,Y pos of 4 corners*
0 Add a 4 corners polygon primitive as box body*
4,1,4,$2,$3,$4,$5,$6,$7,$8,$9,$2,$3,0*
0 Add four circle primitives for the rounded corners*
1,1,$1+$1,$2,$3*
1,1,$1+$1,$4,$5*
1,1,$1+$1,$6,$7*
1,1,$1+$1,$8,$9*
0 Add four rect primitives between the rounded corners*
20,1,$1+$1,$2,$3,$4,$5,0*
20,1,$1+$1,$4,$5,$6,$7,0*
20,1,$1+$1,$6,$7,$8,$9,0*
20,1,$1+$1,$8,$9,$2,$3,0*%
G04 Aperture macros list end*
%ADD10RoundRect,0.250000X-0.350000X-0.450000X0.350000X-0.450000X0.350000X0.450000X-0.350000X0.450000X0*%
%ADD11RoundRect,0.250000X0.337500X0.475000X-0.337500X0.475000X-0.337500X-0.475000X0.337500X-0.475000X0*%
%ADD12RoundRect,0.243750X0.456250X-0.243750X0.456250X0.243750X-0.456250X0.243750X-0.456250X-0.243750X0*%
%ADD13RoundRect,0.250000X-0.475000X0.337500X-0.475000X-0.337500X0.475000X-0.337500X0.475000X0.337500X0*%
%ADD14RoundRect,0.250000X0.350000X0.450000X-0.350000X0.450000X-0.350000X-0.450000X0.350000X-0.450000X0*%
%ADD15R,0.300000X0.850000*%
%ADD16C,1.100000*%
%ADD17RoundRect,0.250000X-0.450000X0.350000X-0.450000X-0.350000X0.450000X-0.350000X0.450000X0.350000X0*%
%ADD18RoundRect,0.225000X0.375000X-0.225000X0.375000X0.225000X-0.375000X0.225000X-0.375000X-0.225000X0*%
%ADD19RoundRect,0.475000X2.075000X-0.475000X2.075000X0.475000X-2.075000X0.475000X-2.075000X-0.475000X0*%
%ADD20RoundRect,0.250000X0.450000X-0.350000X0.450000X0.350000X-0.450000X0.350000X-0.450000X-0.350000X0*%
%ADD21RoundRect,0.150000X-0.150000X-0.625000X0.150000X-0.625000X0.150000X0.625000X-0.150000X0.625000X0*%
%ADD22RoundRect,0.250000X-0.350000X-0.650000X0.350000X-0.650000X0.350000X0.650000X-0.350000X0.650000X0*%
%ADD23RoundRect,0.250000X1.075000X-0.400000X1.075000X0.400000X-1.075000X0.400000X-1.075000X-0.400000X0*%
%ADD24RoundRect,0.243750X-0.456250X0.243750X-0.456250X-0.243750X0.456250X-0.243750X0.456250X0.243750X0*%
%ADD25RoundRect,0.250000X1.125000X-1.275000X1.125000X1.275000X-1.125000X1.275000X-1.125000X-1.275000X0*%
%ADD26RoundRect,0.250000X0.350000X-0.850000X0.350000X0.850000X-0.350000X0.850000X-0.350000X-0.850000X0*%
%ADD27RoundRect,0.200000X-0.200000X0.750000X-0.200000X-0.750000X0.200000X-0.750000X0.200000X0.750000X0*%
%ADD28RoundRect,0.150000X-0.150000X0.512500X-0.150000X-0.512500X0.150000X-0.512500X0.150000X0.512500X0*%
%ADD29RoundRect,0.243750X-0.243750X-0.456250X0.243750X-0.456250X0.243750X0.456250X-0.243750X0.456250X0*%
G04 APERTURE END LIST*
D10*
%TO.C,R19*%
X103400000Y-110100000D03*
X105400000Y-110100000D03*
%TD*%
%TO.C,R15*%
X105400000Y-108100000D03*
X103400000Y-108100000D03*
%TD*%
D11*
%TO.C,C4*%
X60727500Y-43960000D03*
X58652500Y-43960000D03*
%TD*%
D12*
%TO.C,D3*%
X40290000Y-24097500D03*
X40290000Y-22222500D03*
%TD*%
D11*
%TO.C,C12*%
X76827500Y-50960000D03*
X74752500Y-50960000D03*
%TD*%
D13*
%TO.C,C6*%
X63090000Y-37485000D03*
X63090000Y-39560000D03*
%TD*%
%TO.C,C7*%
X40400000Y-109022500D03*
X40400000Y-111097500D03*
%TD*%
D14*
%TO.C,R6*%
X79690000Y-43360000D03*
X77690000Y-43360000D03*
%TD*%
D13*
%TO.C,C9*%
X48590000Y-108847500D03*
X48590000Y-110922500D03*
%TD*%
D15*
%TO.C,J8*%
X77890000Y-36325000D03*
X78390000Y-36325000D03*
X78890000Y-36325000D03*
X79390000Y-36325000D03*
X79890000Y-36325000D03*
X80390000Y-36325000D03*
X80890000Y-36325000D03*
X81390000Y-36325000D03*
X81890000Y-36325000D03*
X82390000Y-36325000D03*
X82890000Y-36325000D03*
X83390000Y-36325000D03*
X83390000Y-37995000D03*
X82890000Y-37995000D03*
X82390000Y-37995000D03*
X81890000Y-37995000D03*
X81390000Y-37995000D03*
X80890000Y-37995000D03*
X80390000Y-37995000D03*
X79890000Y-37995000D03*
X79390000Y-37995000D03*
X78890000Y-37995000D03*
X78390000Y-37995000D03*
X77890000Y-37995000D03*
D16*
X78240000Y-35010000D03*
X78240000Y-39310000D03*
X83040000Y-35010000D03*
X83040000Y-39310000D03*
%TD*%
D13*
%TO.C,C2*%
X53790000Y-45922500D03*
X53790000Y-47997500D03*
%TD*%
D17*
%TO.C,R5*%
X40290000Y-18460000D03*
X40290000Y-20460000D03*
%TD*%
D18*
%TO.C,D5*%
X79890000Y-48910000D03*
X79890000Y-45610000D03*
%TD*%
D10*
%TO.C,R11*%
X58790000Y-50260000D03*
X60790000Y-50260000D03*
%TD*%
D19*
%TO.C,L1*%
X58690000Y-41660000D03*
X58690000Y-37460000D03*
%TD*%
D10*
%TO.C,R8*%
X84200000Y-41360000D03*
X86200000Y-41360000D03*
%TD*%
D11*
%TO.C,C11*%
X76827500Y-53060000D03*
X74752500Y-53060000D03*
%TD*%
D20*
%TO.C,R3*%
X42390000Y-24160000D03*
X42390000Y-22160000D03*
%TD*%
D13*
%TO.C,C3*%
X55890000Y-45922500D03*
X55890000Y-47997500D03*
%TD*%
D21*
%TO.C,J20*%
X102200000Y-104625000D03*
X103200000Y-104625000D03*
X104200000Y-104625000D03*
X105200000Y-104625000D03*
D22*
X100900000Y-102100000D03*
X106500000Y-102100000D03*
%TD*%
D23*
%TO.C,R13*%
X39590000Y-47010000D03*
X39590000Y-43910000D03*
%TD*%
D13*
%TO.C,C8*%
X42590000Y-109022500D03*
X42590000Y-111097500D03*
%TD*%
D24*
%TO.C,D2*%
X42400000Y-18527500D03*
X42400000Y-20402500D03*
%TD*%
D20*
%TO.C,R2*%
X54890000Y-52060000D03*
X54890000Y-50060000D03*
%TD*%
D14*
%TO.C,R12*%
X97550000Y-34800000D03*
X95550000Y-34800000D03*
%TD*%
D25*
%TO.C,Q3*%
X45485000Y-41335000D03*
X48535000Y-41335000D03*
X45485000Y-37985000D03*
X48535000Y-37985000D03*
D26*
X44730000Y-45960000D03*
X49290000Y-45960000D03*
%TD*%
D20*
%TO.C,R4*%
X65290000Y-47360000D03*
X65290000Y-45360000D03*
%TD*%
D14*
%TO.C,R7*%
X79890000Y-32860000D03*
X77890000Y-32860000D03*
%TD*%
D13*
%TO.C,C5*%
X65190000Y-37485000D03*
X65190000Y-39560000D03*
%TD*%
D17*
%TO.C,R1*%
X56890000Y-50060000D03*
X56890000Y-52060000D03*
%TD*%
D27*
%TO.C,Q4*%
X77690000Y-45660000D03*
X75790000Y-45660000D03*
X76740000Y-48660000D03*
%TD*%
D17*
%TO.C,R9*%
X42390000Y-45960000D03*
X42390000Y-47960000D03*
%TD*%
D28*
%TO.C,U1*%
X59590000Y-45985000D03*
X58640000Y-45985000D03*
X57690000Y-45985000D03*
X57690000Y-48260000D03*
X58640000Y-48260000D03*
X59590000Y-48260000D03*
%TD*%
D11*
%TO.C,C13*%
X108187500Y-50000000D03*
X106112500Y-50000000D03*
%TD*%
D13*
%TO.C,C1*%
X51690000Y-45922500D03*
X51690000Y-47997500D03*
%TD*%
D29*
%TO.C,D1*%
X63452500Y-43460000D03*
X65327500Y-43460000D03*
%TD*%
D13*
%TO.C,C10*%
X50690000Y-108885000D03*
X50690000Y-110960000D03*
%TD*%
M02*
