M48
; DRILL file KiCad 10.0.0 date 2026-04-17T21:24:39
; FORMAT={-:-/ absolute / metric / decimal}
; #@! TF.CreationDate,2026-04-17T21:24:39-04:00
; #@! TF.GenerationSoftware,Kicad,Pcbnew,10.0.0
; #@! TF.FileFunction,Plated,1,2,PTH
FMAT,2
METRIC
; #@! TA.AperFunction,Plated,PTH,ViaDrill
T1C0.300
; #@! TA.AperFunction,Plated,PTH,ComponentDrill
T2C0.700
; #@! TA.AperFunction,Plated,PTH,ComponentDrill
T3C1.000
; #@! TA.AperFunction,Plated,PTH,ComponentDrill
T4C1.780
; #@! TA.AperFunction,Plated,PTH,ComponentDrill
T5C1.900
%
G90
G05
T1
X22.4Y-114.2
X22.5Y-65.9
X22.5Y-70.5
X22.5Y-73.2
X22.6Y-63.9
X22.6Y-68.5
X22.6Y-77.2
X22.6Y-81.8
X22.6Y-84.5
X22.6Y-89.6
X22.6Y-94.2
X22.6Y-96.9
X22.7Y-40.1
X22.7Y-44.7
X22.7Y-47.4
X22.7Y-75.2
X22.7Y-79.8
X22.7Y-87.6
X22.7Y-92.2
X22.7Y-100.6
X22.8Y-38.1
X22.8Y-42.7
X22.8Y-53.6
X22.8Y-58.2
X22.8Y-60.9
X22.9Y-21.0
X22.9Y-25.6
X22.9Y-30.2
X22.9Y-34.8
X22.9Y-51.6
X22.9Y-56.2
X23.0Y-19.0
X23.0Y-23.6
X23.0Y-28.2
X23.0Y-32.8
X24.5Y-114.2
X24.792Y-59.787
X25.15Y-51.8
X25.8Y-40.2
X25.8Y-44.8
X25.9Y-38.2
X25.9Y-42.8
X26.0Y-21.1
X26.0Y-25.7
X26.0Y-30.3
X26.0Y-34.9
X26.1Y-19.1
X26.1Y-23.7
X26.1Y-28.3
X26.1Y-32.9
X28.175Y-48.08
X29.25Y-60.55
X29.6Y-39.9
X29.6Y-44.5
X29.7Y-37.9
X29.7Y-42.5
X29.8Y-20.8
X29.8Y-25.4
X29.8Y-30.0
X29.8Y-34.6
X29.9Y-18.8
X29.9Y-23.4
X29.9Y-28.0
X29.9Y-32.6
X29.95Y-108.05
X30.05Y-56.95
X30.15Y-51.8
X30.7Y-81.35
X30.762Y-87.487
X30.8Y-74.7
X30.85Y-84.45
X30.9Y-65.0
X30.9Y-71.3
X31.0Y-68.05
X31.0Y-77.55
X31.7Y-110.6
X31.939Y-46.859
X32.05Y-113.1
X32.8Y-25.3
X33.1Y-34.2
X34.0Y-43.5
X34.25Y-55.15
X34.25Y-114.05
X34.3Y-87.1
X34.35Y-61.7
X34.5Y-100.35
X34.7Y-89.7
X34.75Y-94.95
X34.85Y-92.25
X34.9Y-97.5
X35.1Y-18.1
X35.31Y-45.871
X36.1Y-50.0
X36.7Y-53.7
X37.5Y-25.5
X38.0Y-19.7
X38.171Y-114.627
X38.2Y-22.5
X39.2Y-51.7
X40.173Y-113.008
X40.2Y-32.7
X40.2Y-56.2
X40.25Y-90.05
X40.45Y-94.95
X40.5Y-69.5
X40.637Y-97.237
X40.65Y-92.8
X40.75Y-102.7
X40.8Y-67.0
X40.8Y-71.65
X40.85Y-81.8
X40.882Y-105.307
X40.9Y-74.45
X40.9Y-77.2
X41.1Y-79.95
X41.25Y-85.25
X41.25Y-86.75
X41.25Y-99.9
X41.35Y-107.65
X41.55Y-64.9
X41.75Y-61.75
X41.95Y-59.0
X42.0Y-54.6
X42.7Y-43.5
X42.7Y-114.65
X42.75Y-113.05
X43.5Y-51.1
X43.9Y-48.2
X44.6Y-25.0
X45.6Y-33.3
X46.4Y-114.5
X46.6Y-47.9
X47.1Y-22.9
X48.0Y-56.6
X48.127Y-71.316
X48.2Y-51.3
X48.4Y-98.8
X48.4Y-103.4
X48.4Y-112.55
X48.5Y-17.9
X48.5Y-96.8
X48.5Y-101.4
X48.6Y-105.25
X48.7Y-65.7
X48.7Y-91.95
X48.75Y-74.95
X48.8Y-88.0
X48.85Y-81.7
X48.95Y-60.55
X49.25Y-114.0
X50.7Y-95.2
X51.05Y-112.6
X51.2Y-50.3
X51.4Y-21.7
X51.45Y-113.35
X52.45Y-72.8
X52.509Y-80.369
X52.513Y-42.313
X52.6Y-36.4
X52.7Y-98.4
X52.7Y-103.0
X52.747Y-88.882
X52.75Y-56.45
X52.8Y-96.4
X52.8Y-101.0
X53.054Y-92.152
X53.1Y-53.0
X53.125Y-111.065
X53.15Y-105.75
X53.3Y-64.2
X53.3Y-68.8
X53.35Y-108.35
X53.4Y-27.5
X53.4Y-38.3
X53.4Y-62.2
X53.4Y-66.8
X53.4Y-114.2
X53.6Y-18.8
X53.8Y-59.55
X54.3Y-33.9
X54.6Y-85.15
X55.1Y-37.5
X55.75Y-105.55
X56.0Y-92.35
X56.0Y-98.6
X56.0Y-103.2
X56.1Y-96.6
X56.1Y-101.2
X56.2Y-56.25
X56.3Y-78.2
X56.3Y-82.8
X56.4Y-64.3
X56.4Y-68.9
X56.4Y-76.2
X56.4Y-80.8
X56.5Y-62.3
X56.5Y-66.9
X56.8Y-53.6
X56.899Y-28.242
X57.35Y-114.4
X57.4Y-87.65
X58.9Y-99.5
X58.9Y-104.1
X59.0Y-59.55
X59.0Y-97.5
X59.0Y-102.1
X59.4Y-78.3
X59.4Y-82.9
X59.5Y-76.3
X59.5Y-80.9
X60.1Y-33.7
X60.2Y-64.0
X60.2Y-68.6
X60.3Y-62.0
X60.3Y-66.6
X60.4Y-87.4
X60.4Y-92.0
X60.5Y-85.4
X60.5Y-90.0
X60.6Y-114.9
X60.8Y-45.7
X60.8Y-46.9
X60.873Y-27.948
X61.8Y-52.0
X62.05Y-57.4
X62.35Y-72.95
X62.4Y-50.3
X62.8Y-68.8
X62.95Y-111.3
X63.1Y-59.25
X63.2Y-64.1
X63.2Y-78.0
X63.2Y-82.6
X63.3Y-76.0
X63.3Y-80.6
X63.4Y-98.3
X63.4Y-102.9
X63.5Y-88.8
X63.5Y-93.4
X63.5Y-96.3
X63.5Y-100.9
X63.6Y-86.8
X63.6Y-91.4
X65.3Y-33.85
X65.65Y-110.3
X65.85Y-70.5
X65.9Y-106.85
X66.01Y-108.805
X66.2Y-58.3
X66.2Y-62.45
X66.2Y-65.05
X68.05Y-49.7
X68.25Y-114.2
X70.2Y-33.6
X70.75Y-68.95
X70.95Y-64.3
X71.25Y-58.1
X71.25Y-66.9
X71.3Y-61.9
X71.35Y-111.5
X71.5Y-109.35
X71.65Y-106.95
X71.8Y-97.4
X71.85Y-94.95
X71.9Y-85.0
X72.1Y-102.95
X72.15Y-87.4
X72.2Y-79.25
X72.25Y-77.15
X72.25Y-100.0
X72.3Y-51.15
X72.3Y-92.7
X72.35Y-82.1
X72.5Y-74.4
X72.55Y-89.95
X72.75Y-71.9
X73.05Y-33.6
X73.2Y-53.6
X73.295Y-111.405
X73.75Y-61.95
X73.8Y-109.45
X73.95Y-69.55
X74.0Y-27.75
X74.05Y-64.25
X74.05Y-67.05
X74.05Y-107.0
X74.2Y-58.0
X74.35Y-48.65
X74.5Y-21.95
X74.5Y-44.15
X75.0Y-19.15
X75.5Y-30.55
X76.1Y-41.1
X76.7Y-36.2
X76.8Y-22.0
X76.8Y-26.6
X76.9Y-20.0
X76.9Y-24.6
X77.0Y-38.2
X78.45Y-54.3
X79.1Y-29.65
X79.4Y-41.7
X79.4Y-100.45
X79.647Y-59.18
X79.9Y-22.1
X79.9Y-26.7
X80.0Y-20.1
X80.0Y-24.7
X80.39Y-39.96
X81.0Y-61.95
X81.05Y-72.25
X81.15Y-53.95
X81.39Y-34.16
X81.6Y-18.5
X81.65Y-75.1
X81.65Y-105.85
X81.75Y-101.35
X81.75Y-111.3
X81.85Y-87.4
X81.85Y-95.15
X81.93Y-84.852
X81.95Y-30.8
X81.95Y-69.55
X81.95Y-97.9
X82.0Y-90.2
X82.0Y-92.6
X82.05Y-57.1
X82.05Y-82.2
X82.15Y-79.0
X82.25Y-65.55
X82.4Y-48.35
X83.25Y-32.8
X83.7Y-21.8
X83.7Y-26.4
X83.8Y-19.8
X83.8Y-24.4
X84.3Y-38.25
X84.5Y-36.07
X85.3Y-51.65
X85.4Y-42.95
X85.85Y-30.5
X86.0Y-55.9
X86.7Y-26.5
X87.45Y-22.3
X87.95Y-27.8
X88.1Y-39.55
X88.15Y-18.4
X89.15Y-34.9
X89.2Y-61.05
X89.2Y-75.65
X89.3Y-89.35
X89.331Y-73.172
X89.4Y-64.45
X89.479Y-67.432
X89.479Y-70.435
X89.5Y-37.75
X89.6Y-95.25
X90.0Y-99.1
X90.05Y-102.95
X90.05Y-108.45
X90.2Y-53.6
X90.22Y-85.63
X90.25Y-50.35
X90.45Y-92.1
X90.6Y-81.6
X90.7Y-21.0
X90.7Y-25.6
X90.8Y-19.0
X90.8Y-23.6
X90.95Y-42.95
X91.2Y-58.65
X91.2Y-74.5
X91.4Y-62.05
X91.5Y-65.2
X91.55Y-70.0
X91.8Y-77.9
X92.05Y-92.45
X92.95Y-38.25
X93.0Y-34.8
X93.0Y-85.6
X93.15Y-109.15
X93.3Y-29.55
X93.3Y-50.35
X93.4Y-53.4
X93.8Y-21.1
X93.8Y-25.7
X93.9Y-19.1
X93.9Y-23.7
X93.95Y-102.55
X93.95Y-113.75
X94.0Y-39.5
X94.0Y-44.15
X94.1Y-57.7
X94.1Y-84.3
X94.1Y-106.15
X94.2Y-89.05
X94.25Y-80.3
X94.25Y-95.25
X94.3Y-66.55
X94.3Y-70.55
X94.35Y-62.2
X94.4Y-76.2
X95.4Y-87.2
X95.75Y-99.0
X96.35Y-91.9
X96.4Y-29.3
X96.65Y-57.75
X96.65Y-67.25
X96.7Y-75.45
X96.7Y-79.65
X96.7Y-111.35
X96.8Y-50.35
X96.8Y-54.05
X96.879Y-71.925
X96.9Y-61.6
X96.9Y-87.65
X96.95Y-84.4
X97.25Y-40.5
X97.6Y-20.8
X97.6Y-25.4
X97.7Y-18.8
X97.7Y-23.4
X98.03Y-90.53
X98.05Y-92.25
X98.45Y-105.7
X98.55Y-102.05
X98.6Y-43.55
X98.6Y-98.7
X99.2Y-50.1
X99.25Y-95.1
X99.5Y-93.9
X99.776Y-113.489
X99.95Y-33.55
X99.968Y-38.475
X100.75Y-109.9
X100.85Y-107.3
X100.9Y-26.85
X101.05Y-18.2
X101.1Y-93.85
X101.45Y-63.2
X101.6Y-36.75
X101.7Y-81.1
X101.75Y-53.8
X101.789Y-58.746
X101.8Y-41.7
X101.8Y-86.75
X101.8Y-90.6
X101.85Y-78.4
X101.9Y-73.3
X101.9Y-98.7
X101.983Y-69.443
X102.2Y-112.95
X103.2Y-50.5
X103.4Y-106.6
X103.4Y-111.7
X104.15Y-43.9
X104.95Y-52.95
X105.0Y-33.6
X105.1Y-37.45
X105.2Y-28.15
X105.3Y-112.15
X105.472Y-42.155
X105.7Y-92.35
X106.2Y-114.85
X106.381Y-68.673
X106.4Y-64.2
X106.45Y-25.9
X106.5Y-60.2
X106.55Y-88.45
X106.65Y-55.8
X106.75Y-71.95
X106.95Y-76.55
X107.0Y-82.4
X107.05Y-18.15
X107.05Y-98.35
X107.25Y-22.5
X107.55Y-20.15
X108.2Y-105.6
X108.8Y-95.7
X108.95Y-113.45
X109.2Y-102.0
X109.4Y-25.75
X109.45Y-29.0
X109.45Y-34.4
X109.48Y-109.66
X109.9Y-18.75
X109.922Y-104.685
X109.95Y-22.1
T2
X78.24Y-35.01
X78.24Y-39.31
X83.04Y-35.01
X83.04Y-39.31
T3
X23.19Y-106.41
X23.19Y-110.76
X27.3Y-58.2
X27.4Y-52.0
X28.09Y-109.26
X28.09Y-112.56
X28.19Y-105.96
X28.29Y-99.36
X28.39Y-96.06
X28.39Y-102.66
X28.49Y-92.76
X28.59Y-89.46
X28.69Y-76.26
X28.69Y-79.56
X28.69Y-82.86
X28.69Y-86.16
X28.79Y-63.06
X28.79Y-66.36
X28.79Y-69.66
X28.79Y-72.96
X33.0Y-53.0
X33.19Y-39.26
X33.39Y-29.56
X37.39Y-58.06
X37.39Y-60.6
X37.39Y-63.14
X37.39Y-65.68
X37.39Y-68.22
X37.39Y-70.76
X37.39Y-73.3
X37.39Y-75.84
X37.39Y-78.38
X37.39Y-80.92
X37.39Y-83.46
X37.39Y-86.0
X37.39Y-88.54
X37.39Y-91.08
X37.39Y-93.62
X37.39Y-96.16
X37.39Y-98.7
X37.39Y-101.24
X37.39Y-103.78
X37.39Y-106.32
X37.39Y-108.86
X37.39Y-111.4
X45.29Y-20.6
X45.6Y-58.06
X45.6Y-60.6
X45.6Y-63.14
X45.6Y-65.68
X45.6Y-68.22
X45.6Y-70.76
X45.6Y-73.3
X45.6Y-75.84
X45.6Y-78.38
X45.6Y-80.92
X45.6Y-83.46
X45.6Y-86.0
X45.6Y-88.54
X45.6Y-91.08
X45.6Y-93.62
X45.6Y-96.16
X45.6Y-98.7
X45.6Y-101.24
X45.6Y-103.78
X45.6Y-106.32
X45.6Y-108.86
X45.6Y-111.4
X56.29Y-20.6
X60.6Y-20.6
X65.5Y-52.4
X68.46Y-58.06
X68.46Y-60.6
X68.46Y-63.14
X68.46Y-65.68
X68.46Y-68.22
X68.46Y-70.76
X68.46Y-73.3
X68.46Y-75.84
X68.46Y-78.38
X68.46Y-80.92
X68.46Y-83.46
X68.46Y-86.0
X68.46Y-88.54
X68.46Y-91.08
X68.46Y-93.62
X68.46Y-96.16
X68.46Y-98.7
X68.46Y-101.24
X68.46Y-103.78
X68.46Y-106.32
X68.46Y-108.86
X68.46Y-111.4
X70.1Y-52.4
X71.6Y-20.6
X76.67Y-58.06
X76.67Y-60.6
X76.67Y-63.14
X76.67Y-65.68
X76.67Y-68.22
X76.67Y-70.76
X76.67Y-73.3
X76.67Y-75.84
X76.67Y-78.38
X76.67Y-80.92
X76.67Y-83.46
X76.67Y-86.0
X76.67Y-88.54
X76.67Y-91.08
X76.67Y-93.62
X76.67Y-96.16
X76.67Y-98.7
X76.67Y-101.24
X76.67Y-103.78
X76.67Y-106.32
X76.67Y-108.86
X76.67Y-111.4
X83.2Y-53.1
X84.59Y-46.66
X85.4Y-74.06
X85.4Y-77.36
X85.5Y-60.86
X85.5Y-64.16
X85.5Y-67.46
X85.5Y-70.76
X86.0Y-80.66
X86.0Y-83.96
X86.0Y-103.76
X86.0Y-107.06
X86.1Y-87.26
X86.1Y-97.16
X86.1Y-110.36
X86.2Y-90.56
X86.2Y-93.86
X87.1Y-100.46
X90.41Y-31.86
X90.41Y-47.1
X92.7Y-98.96
X92.95Y-31.86
X92.95Y-47.1
X95.49Y-31.86
X95.49Y-47.1
X98.03Y-31.86
X98.03Y-47.1
X100.57Y-31.86
X100.57Y-47.1
X103.11Y-31.86
X103.11Y-47.1
X105.65Y-31.86
X105.65Y-47.1
X108.19Y-31.86
X108.19Y-47.1
T4
X38.09Y-29.76
X38.09Y-39.68
X41.49Y-29.76
X41.49Y-39.68
X68.29Y-37.46
X68.29Y-47.38
X71.69Y-37.46
X71.69Y-47.38
T5
X48.29Y-30.6
X53.29Y-30.6
X63.6Y-30.6
X68.6Y-30.6
M30
